<svg width="250" height="65" viewBox="0 0 250 65" fill="none" xmlns="http://www.w3.org/2000/svg">
<g clip-path="url(#clip0_146_367)">
<path d="M25.6664 25.7838C26.6284 25.1975 27.9004 25.3423 28.8994 25.8648C29.8983 26.3873 30.6807 27.2312 31.4434 28.0603C33.8645 30.6876 36.2855 33.3149 38.709 35.9446C39.0264 36.2905 39.3586 36.6437 39.7867 36.84C40.2123 37.0338 40.6946 37.051 41.1621 37.0681C43.5167 37.1442 45.8811 37.2129 48.2333 37.0411C50.4698 36.8768 53.0803 36.5873 55.1052 35.5472C58.0651 34.0263 60.5353 31.767 62.2109 28.8846C63.8716 26.0291 64.7279 22.7125 64.6442 19.4131C64.5581 16.0057 63.4411 12.6597 61.3915 9.9245C61.3374 9.85336 61.2833 9.78222 61.2292 9.71108C57.7378 5.01338 51.951 2.57744 46.1419 3.07052C37.8331 3.07052 29.5268 3.09014 21.2204 3.09505C17.7389 -2.23801 8.94543 -0.297601 8.26144 6.09765C7.3437 13.4619 17.2641 16.8202 21.2155 10.6261C29.9327 10.6531 38.6475 10.6482 47.3647 10.6531C50.145 10.6089 52.9228 11.8649 54.6672 14.0335C59.2215 19.0942 56.05 28.6932 48.8385 28.7398C46.8776 28.7545 44.9166 28.7496 42.9582 28.7423C36.7407 22.791 33.0132 14.3474 22.923 18.5398C17.1657 21.0567 14.6708 28.5755 17.5839 34.0851C19.1586 36.889 21.6116 39.0282 24.0031 41.1207C27.7282 44.3784 31.0522 47.9943 34.2237 51.7843C36.657 54.6912 39.024 57.7944 41.7329 60.4487C44.0432 62.7105 46.9711 64.5822 50.2041 64.7245C52.4652 64.8226 54.714 64.0548 56.611 62.8233C59.6766 60.8338 61.9599 57.3946 61.8492 53.7493C61.7557 50.6412 60.0137 47.8373 58.1536 45.34C57.3343 44.2386 54.0595 40.7502 52.9942 39.8966L43.4379 41.258C45.982 43.8387 48.5236 46.4194 51.0677 49C52.074 50.0205 53.1098 51.0901 53.5674 52.4467C54.0251 53.8032 53.7101 55.5302 52.4775 56.2612C51.5597 56.8058 50.3615 56.6685 49.4118 56.1803C48.4621 55.6946 47.7067 54.9071 46.9735 54.1344L27.0491 33.2069C26.0453 32.1521 25.0119 31.0507 24.5617 29.6696C24.1114 28.2885 24.4263 26.5418 25.6688 25.7838H25.6664ZM15.2047 9.54672C11.4772 9.52955 11.4797 3.88249 15.2047 3.86777C18.9273 3.88249 18.9273 9.52955 15.2047 9.54672ZM21.6018 47.2019L27.2189 52.7999C24.2049 55.8933 20.8021 59.3644 17.7291 62.4014C13.8835 66.0737 7.26251 65.7327 3.47102 62.1511C0.3832 59.2295 -0.780574 54.4999 0.528365 50.4719C1.06719 48.6026 2.21621 46.9762 3.58173 45.6148C6.65479 42.5287 9.73522 39.4501 12.8304 36.3837L17.9874 42.4993C15.1038 45.4872 11.5043 48.8823 8.65756 51.907C7.50609 53.1065 7.51101 55.2407 8.77566 56.3569C9.7303 57.2032 11.2853 57.3431 12.3137 56.5482C13.6768 55.5425 14.7274 54.1957 15.9182 53.006C17.7143 51.2275 19.8303 49.0049 21.6018 47.2019Z" fill="url(#paint0_linear_146_367)"/>
<path d="M104.122 33.2322C106.678 30.9386 107.955 27.7373 107.955 23.6259C107.955 19.5145 106.678 16.686 104.122 14.5297C101.566 12.3735 97.9366 11.2941 93.2348 11.2941H77.6973V46.9672H85.7723V36.6739H93.2348C93.471 36.6739 93.7023 36.669 93.9335 36.6641L99.6761 46.9696H108.826L101.125 35.18C102.25 34.6649 103.251 34.0172 104.125 33.2347L104.122 33.2322ZM85.7699 17.7654H93.2323C95.4811 17.7654 97.2182 18.2756 98.4459 19.2937C99.6737 20.3117 100.286 21.8425 100.286 23.881C100.286 25.9195 99.6737 27.5582 98.4459 28.5959C97.2182 29.6335 95.4811 30.1511 93.2323 30.1511H85.7699V17.7678V17.7654ZM134.688 21.0771C132.473 19.9217 129.9 19.3452 126.97 19.3452C124.039 19.3452 121.458 19.9241 119.227 21.0771C116.995 22.2325 115.265 23.854 114.038 25.944C112.81 28.0341 112.197 30.4725 112.197 33.2568C112.197 36.041 112.81 38.4892 114.038 40.5965C115.265 42.7037 116.993 44.335 119.227 45.488C121.458 46.6434 124.039 47.2199 126.97 47.2199C129.9 47.2199 132.473 46.6434 134.688 45.488C136.902 44.3325 138.624 42.7037 139.85 40.5965C141.078 38.4892 141.69 36.0435 141.69 33.2568C141.69 30.47 141.078 28.0341 139.85 25.944C138.622 23.854 136.902 22.2325 134.688 21.0771ZM132.948 37.4099C132.368 38.5825 131.568 39.4999 130.547 40.1623C129.526 40.8246 128.333 41.1558 126.97 41.1558C125.606 41.1558 124.406 40.8246 123.365 40.1623C122.324 39.4999 121.517 38.5825 120.937 37.4099C120.356 36.2373 120.068 34.8881 120.068 33.3573C120.068 31.8266 120.356 30.4774 120.937 29.3048C121.515 28.1322 122.324 27.2246 123.365 26.5794C124.403 25.9342 125.604 25.6104 126.97 25.6104C128.335 25.6104 129.526 25.9342 130.547 26.5794C131.568 27.2246 132.37 28.1347 132.948 29.3048C133.527 30.4774 133.817 31.8266 133.817 33.3573C133.817 34.8881 133.527 36.2373 132.948 37.4099ZM181.915 19.6003H189.685L179.667 46.9672H171.796L165.918 28.5198L159.988 46.9672H152.117L142.047 19.6003H150.073L156.207 39.4754L162.136 19.6003H169.855L175.885 39.4754L181.915 19.6003ZM212.941 21.894C210.931 20.1621 208.067 19.2961 204.354 19.2961C202.753 19.2961 201.269 19.4237 199.908 19.6788C198.545 19.9339 197.217 20.2994 195.923 20.7754C194.626 21.2513 193.297 21.8449 191.937 22.5588L194.39 27.6539C195.822 26.8738 197.234 26.2703 198.632 25.8459C200.029 25.4215 201.34 25.2081 202.568 25.2081C204.443 25.2081 205.865 25.6325 206.837 26.4813C207.809 27.3301 208.294 28.5026 208.294 29.9966V30.5068H200.728C197.355 30.5412 194.764 31.2894 192.958 32.749C191.152 34.211 190.249 36.2152 190.249 38.7615C190.249 40.3929 190.633 41.8525 191.398 43.1452C192.166 44.438 193.256 45.4561 194.67 46.2018C196.085 46.95 197.763 47.3229 199.704 47.3229C202.123 47.3229 204.167 46.847 205.838 45.8952C206.827 45.3334 207.654 44.6098 208.333 43.7389L208.343 46.9672H216.061L216.009 29.0791C215.975 26.0225 214.954 23.6259 212.944 21.894H212.941ZM207.243 39.652C206.648 40.3144 205.897 40.8418 204.994 41.2318C204.091 41.6219 203.06 41.8181 201.901 41.8181C200.573 41.8181 199.525 41.5041 198.757 40.8761C197.989 40.2481 197.608 39.3895 197.608 38.3028C197.608 37.2161 197.982 36.3673 198.732 35.8571C199.48 35.3468 200.607 35.0917 202.106 35.0917H208.306L208.313 37.4835C208.161 38.3053 207.804 39.0265 207.243 39.652ZM242.178 9.15253V23.6479C241.426 22.5882 240.523 21.7051 239.469 21.001C237.764 19.8628 235.703 19.2937 233.284 19.2937C230.728 19.2937 228.496 19.88 226.589 21.0526C224.68 22.2251 223.191 23.8466 222.116 25.9195C221.043 27.9924 220.507 30.4038 220.507 33.1562C220.507 35.9086 221.043 38.4475 222.116 40.5719C223.189 42.6963 224.705 44.3424 226.665 45.5149C228.624 46.6875 230.9 47.2738 233.488 47.2738C235.84 47.2738 237.858 46.7047 239.546 45.5665C240.567 44.8771 241.443 44.0063 242.178 42.9613V46.9672H250V9.15253H242.178ZM241.31 37.4099C240.729 38.5825 239.922 39.4999 238.881 40.1623C237.841 40.8246 236.657 41.1558 235.329 41.1558C234 41.1558 232.765 40.8246 231.724 40.1623C230.683 39.4999 229.876 38.5825 229.296 37.4099C228.715 36.2373 228.41 34.9053 228.375 33.4089C228.41 31.8806 228.715 30.5215 229.296 29.3318C229.874 28.142 230.683 27.2172 231.724 26.5549C232.762 25.8925 233.963 25.5614 235.329 25.5614C236.694 25.5614 237.841 25.8925 238.881 26.5549C239.92 27.2172 240.729 28.1347 241.31 29.3073C241.888 30.4798 242.178 31.8462 242.178 33.4089C242.178 34.9715 241.888 36.2373 241.31 37.4099Z" fill="url(#paint1_linear_146_367)"/>
<path d="M78.2803 55.2808H80.1256V63.4349H78.2803V55.2808ZM87.5905 60.6236L83.6194 55.2808H81.9364V63.4349H83.7006V58.119L87.6618 63.4349H89.3324V55.2808H87.5905V60.6236ZM91.1433 63.4324H92.9886V60.2998H96.6792V58.8206H92.9886V56.76H97.0188V55.2808H91.1433V63.4349V63.4324ZM105.962 57.6897C106.184 58.195 106.294 58.747 106.294 59.3431C106.294 59.9392 106.184 60.4838 105.962 60.9965C105.741 61.5092 105.431 61.9581 105.035 62.3408C104.639 62.7235 104.171 63.0252 103.64 63.2386C103.106 63.4521 102.528 63.56 101.905 63.56C101.283 63.56 100.704 63.4521 100.171 63.2386C99.6366 63.0252 99.1716 62.7259 98.7755 62.3408C98.3794 61.9557 98.0693 61.5067 97.8479 60.9965C97.6265 60.4862 97.5158 59.9318 97.5158 59.3431C97.5158 58.7544 97.6265 58.1926 97.8479 57.6823C98.0693 57.1745 98.3794 56.7305 98.7755 56.3552C99.1716 55.9774 99.6391 55.6855 100.171 55.477C100.704 55.2685 101.283 55.163 101.905 55.163C102.528 55.163 103.106 55.2685 103.64 55.477C104.174 55.6855 104.639 55.9823 105.035 56.3626C105.431 56.7428 105.741 57.1868 105.962 57.6897ZM104.402 59.3456C104.402 58.9727 104.338 58.6268 104.211 58.3079C104.083 57.989 103.905 57.7093 103.679 57.4689C103.453 57.2285 103.189 57.0421 102.889 56.9096C102.589 56.7771 102.269 56.7109 101.925 56.7109C101.58 56.7109 101.258 56.7771 100.95 56.9096C100.643 57.0421 100.375 57.2285 100.143 57.4689C99.9147 57.7093 99.7326 57.989 99.5997 58.3079C99.4669 58.6268 99.4004 58.9727 99.4004 59.3456C99.4004 59.7184 99.4669 60.0668 99.5997 60.3881C99.7326 60.7095 99.9147 60.994 100.148 61.2394C100.382 61.4847 100.65 61.6736 100.955 61.8109C101.258 61.9458 101.583 62.0145 101.925 62.0145C102.267 62.0145 102.589 61.9458 102.889 61.8109C103.189 61.676 103.453 61.4847 103.679 61.2394C103.905 60.994 104.083 60.7119 104.211 60.3881C104.338 60.0668 104.402 59.7184 104.402 59.3456ZM112.864 60.7365L114.625 63.4324H112.534L111.22 61.075C111.166 61.075 111.117 61.0799 111.063 61.0799H109.358V63.4324H107.512V55.2783H111.063C112.138 55.2783 112.967 55.5261 113.55 56.0191C114.133 56.5122 114.426 57.2064 114.426 58.0994C114.426 59.0389 114.133 59.7699 113.55 60.2949C113.351 60.474 113.12 60.6187 112.864 60.7389V60.7365ZM109.355 59.5884H111.06C111.575 59.5884 111.971 59.4707 112.251 59.2327C112.532 58.9972 112.672 58.6366 112.672 58.1558C112.672 57.675 112.532 57.3414 112.251 57.1083C111.971 56.8753 111.575 56.76 111.06 56.76H109.355V59.5909V59.5884ZM120.572 60.3587L118.026 55.2808H115.969V63.4349H117.627V57.8197L119.965 62.6082H121.155L123.48 57.8197V63.4349H125.139V55.2808H123.094L120.57 60.3587H120.572ZM131.472 55.2808L134.953 63.4349H132.99L132.338 61.8036H128.586L127.931 63.4349H126.015L129.577 55.2808H131.469H131.472ZM131.767 60.371L130.468 57.1206L129.164 60.371H131.767ZM134.159 56.7943H136.646V63.4324H138.491V56.7943H140.991V55.2808H134.156V56.7943H134.159ZM141.985 63.4324H143.831V55.2783H141.985V63.4324ZM153.512 57.6897C153.734 58.195 153.844 58.747 153.844 59.3431C153.844 59.9392 153.734 60.4838 153.512 60.9965C153.291 61.5092 152.981 61.9581 152.585 62.3408C152.189 62.7235 151.721 63.0252 151.19 63.2386C150.656 63.4521 150.077 63.56 149.455 63.56C148.833 63.56 148.254 63.4521 147.72 63.2386C147.187 63.0252 146.721 62.7259 146.325 62.3408C145.929 61.9557 145.619 61.5067 145.398 60.9965C145.176 60.4862 145.066 59.9318 145.066 59.3431C145.066 58.7544 145.176 58.1926 145.398 57.6823C145.619 57.1745 145.929 56.7305 146.325 56.3552C146.721 55.9774 147.189 55.6855 147.72 55.477C148.254 55.2685 148.833 55.163 149.455 55.163C150.077 55.163 150.656 55.2685 151.19 55.477C151.724 55.6855 152.189 55.9823 152.585 56.3626C152.981 56.7428 153.291 57.1868 153.512 57.6897ZM151.952 59.3456C151.952 58.9727 151.888 58.6268 151.76 58.3079C151.632 57.989 151.455 57.7093 151.229 57.4689C151.003 57.2285 150.739 57.0421 150.439 56.9096C150.139 56.7771 149.819 56.7109 149.475 56.7109C149.13 56.7109 148.808 56.7771 148.5 56.9096C148.193 57.0421 147.925 57.2285 147.693 57.4689C147.465 57.7093 147.282 57.989 147.15 58.3079C147.017 58.6268 146.95 58.9727 146.95 59.3456C146.95 59.7184 147.017 60.0668 147.15 60.3881C147.282 60.7095 147.465 60.994 147.698 61.2394C147.932 61.4847 148.2 61.6736 148.505 61.8109C148.808 61.9458 149.133 62.0145 149.475 62.0145C149.817 62.0145 150.139 61.9458 150.439 61.8109C150.739 61.676 151.003 61.4847 151.229 61.2394C151.455 60.994 151.632 60.7119 151.76 60.3881C151.888 60.0668 151.952 59.7184 151.952 59.3456ZM160.714 60.6236L156.743 55.2808H155.06V63.4349H156.824V58.119L160.785 63.4349H162.456V55.2808H160.714V60.6236ZM166.614 56.7943H169.101V63.4324H170.947V56.7943H173.446V55.2808H166.611V56.7943H166.614ZM176.286 60.079H180.222V58.5998H176.286V56.76H180.668V55.2808H174.44V63.4349H180.796V61.9557H176.286V60.0815V60.079ZM187.163 61.6809C186.789 61.8551 186.415 61.9434 186.041 61.9434C185.692 61.9434 185.365 61.8747 185.067 61.7398C184.767 61.6049 184.501 61.4184 184.272 61.1805C184.043 60.9425 183.866 60.6653 183.741 60.3464C183.615 60.0275 183.554 59.6865 183.554 59.321C183.554 58.9555 183.615 58.6023 183.741 58.2834C183.866 57.9644 184.043 57.6872 184.272 57.4493C184.501 57.2113 184.767 57.0274 185.067 56.8949C185.367 56.7624 185.692 56.6962 186.041 56.6962C186.423 56.6962 186.804 56.7919 187.185 56.9808C187.567 57.1721 187.894 57.4321 188.167 57.7682L189.242 56.5098C188.969 56.2227 188.659 55.9799 188.315 55.7812C187.968 55.5825 187.599 55.4304 187.205 55.32C186.811 55.2121 186.415 55.1556 186.019 55.1556C185.397 55.1556 184.821 55.2611 184.297 55.4696C183.773 55.6782 183.31 55.975 182.912 56.3552C182.516 56.7354 182.206 57.1795 181.989 57.6823C181.77 58.1877 181.662 58.7347 181.662 59.3259C181.662 59.9171 181.77 60.4789 181.989 60.9916C182.208 61.5043 182.508 61.9532 182.894 62.3359C183.281 62.7186 183.731 63.0203 184.25 63.2337C184.767 63.4471 185.335 63.5551 185.95 63.5551C186.346 63.5551 186.745 63.4938 187.141 63.3736C187.537 63.2534 187.919 63.0841 188.28 62.8658C188.642 62.6474 188.967 62.3923 189.255 62.0979L188.167 60.9671C187.872 61.2614 187.537 61.4969 187.163 61.6711V61.6809ZM195.903 58.7053H192.2V55.2808H190.354V63.4349H192.2V60.1845H195.903V63.4349H197.748V55.2808H195.903V58.7053ZM205.201 60.6236L201.229 55.2808H199.547V63.4349H201.311V58.119L205.272 63.4349H206.943V55.2808H205.201V60.6236ZM216.622 57.6897C216.843 58.195 216.954 58.747 216.954 59.3431C216.954 59.9392 216.843 60.4838 216.622 60.9965C216.4 61.5092 216.09 61.9581 215.694 62.3408C215.298 62.7235 214.831 63.0252 214.299 63.2386C213.765 63.4521 213.187 63.56 212.565 63.56C211.942 63.56 211.364 63.4521 210.83 63.2386C210.296 63.0252 209.831 62.7259 209.435 62.3408C209.039 61.9557 208.729 61.5067 208.507 60.9965C208.286 60.4862 208.175 59.9318 208.175 59.3431C208.175 58.7544 208.286 58.1926 208.507 57.6823C208.729 57.1745 209.039 56.7305 209.435 56.3552C209.831 55.9774 210.298 55.6855 210.83 55.477C211.364 55.2685 211.942 55.163 212.565 55.163C213.187 55.163 213.765 55.2685 214.299 55.477C214.833 55.6855 215.298 55.9823 215.694 56.3626C216.09 56.7428 216.4 57.1868 216.622 57.6897ZM215.062 59.3456C215.062 58.9727 214.998 58.6268 214.87 58.3079C214.742 57.989 214.565 57.7093 214.338 57.4689C214.112 57.2285 213.849 57.0421 213.549 56.9096C213.249 56.7771 212.929 56.7109 212.584 56.7109C212.24 56.7109 211.917 56.7771 211.61 56.9096C211.302 57.0421 211.034 57.2285 210.803 57.4689C210.574 57.7093 210.392 57.989 210.259 58.3079C210.126 58.6268 210.06 58.9727 210.06 59.3456C210.06 59.7184 210.126 60.0668 210.259 60.3881C210.392 60.7095 210.574 60.994 210.808 61.2394C211.042 61.4847 211.31 61.6736 211.615 61.8109C211.917 61.9458 212.242 62.0145 212.584 62.0145C212.926 62.0145 213.249 61.9458 213.549 61.8109C213.849 61.676 214.112 61.4847 214.338 61.2394C214.565 60.994 214.742 60.7119 214.87 60.3881C214.998 60.0668 215.062 59.7184 215.062 59.3456ZM220.015 55.2808H218.169V63.4349H223.508V61.8845H220.015V55.2808ZM232.486 57.6897C232.708 58.195 232.819 58.747 232.819 59.3431C232.819 59.9392 232.708 60.4838 232.486 60.9965C232.265 61.5092 231.955 61.9581 231.559 62.3408C231.163 62.7235 230.695 63.0252 230.164 63.2386C229.63 63.4521 229.052 63.56 228.429 63.56C227.807 63.56 227.229 63.4521 226.695 63.2386C226.161 63.0252 225.696 62.7259 225.3 62.3408C224.903 61.9557 224.593 61.5067 224.372 60.9965C224.151 60.4862 224.04 59.9318 224.04 59.3431C224.04 58.7544 224.151 58.1926 224.372 57.6823C224.593 57.1745 224.903 56.7305 225.3 56.3552C225.696 55.9774 226.163 55.6855 226.695 55.477C227.229 55.2685 227.807 55.163 228.429 55.163C229.052 55.163 229.63 55.2685 230.164 55.477C230.698 55.6855 231.163 55.9823 231.559 56.3626C231.955 56.7428 232.265 57.1868 232.486 57.6897ZM230.927 59.3456C230.927 58.9727 230.863 58.6268 230.735 58.3079C230.607 57.989 230.43 57.7093 230.203 57.4689C229.977 57.2285 229.714 57.0421 229.413 56.9096C229.113 56.7771 228.793 56.7109 228.449 56.7109C228.104 56.7109 227.782 56.7771 227.475 56.9096C227.167 57.0421 226.899 57.2285 226.668 57.4689C226.439 57.7093 226.257 57.989 226.124 58.3079C225.991 58.6268 225.925 58.9727 225.925 59.3456C225.925 59.7184 225.991 60.0668 226.124 60.3881C226.257 60.7095 226.439 60.994 226.673 61.2394C226.906 61.4847 227.174 61.6736 227.48 61.8109C227.782 61.9458 228.107 62.0145 228.449 62.0145C228.791 62.0145 229.113 61.9458 229.413 61.8109C229.714 61.676 229.977 61.4847 230.203 61.2394C230.43 60.994 230.607 60.7119 230.735 60.3881C230.863 60.0668 230.927 59.7184 230.927 59.3456ZM235.867 57.4689C236.101 57.2285 236.374 57.0396 236.684 56.9047C236.996 56.7698 237.333 56.7011 237.7 56.7011C238.096 56.7011 238.497 56.7821 238.898 56.9464C239.299 57.1083 239.649 57.334 239.944 57.621L240.985 56.3626C240.712 56.1148 240.397 55.9014 240.037 55.7223C239.678 55.5432 239.302 55.4059 238.903 55.3077C238.507 55.2096 238.104 55.163 237.7 55.163C237.07 55.163 236.482 55.2685 235.936 55.477C235.39 55.6855 234.917 55.9823 234.516 56.3626C234.115 56.7428 233.803 57.1868 233.576 57.6971C233.35 58.2049 233.237 58.7544 233.237 59.3456C233.237 59.9367 233.345 60.4887 233.564 61.0063C233.783 61.5239 234.091 61.9704 234.487 62.3506C234.883 62.7308 235.345 63.0277 235.872 63.2411C236.399 63.4545 236.972 63.5624 237.594 63.5624C237.968 63.5624 238.357 63.5158 238.763 63.4226C239.169 63.3294 239.555 63.2018 239.924 63.0375C240.293 62.8731 240.623 62.6916 240.911 62.4904V59.3333H239.312V61.5533C239.147 61.6417 238.977 61.7226 238.797 61.7913C238.409 61.9385 238.045 62.0121 237.71 62.0121C237.343 62.0121 237.004 61.9434 236.694 61.8085C236.381 61.6736 236.111 61.4822 235.877 61.2369C235.643 60.9916 235.461 60.7095 235.328 60.3857C235.195 60.0643 235.129 59.716 235.129 59.3431C235.129 58.9702 235.193 58.6243 235.321 58.3054C235.449 57.9865 235.631 57.7069 235.865 57.4665L235.867 57.4689ZM249.444 55.2808H247.586L245.541 58.9972L243.45 55.2808H241.592L244.619 60.788V63.4324H246.464V60.7512L249.444 55.2783V55.2808Z" fill="url(#paint2_linear_146_367)"/>
</g>
<defs>
<linearGradient id="paint0_linear_146_367" x1="-0.00195313" y1="32.5035" x2="78.5012" y2="32.8043" gradientUnits="userSpaceOnUse">
<stop stop-color="#9F27D6"/>
<stop offset="1" stop-color="#1F3292"/>
</linearGradient>
<linearGradient id="paint1_linear_146_367" x1="77.6973" y1="28.2377" x2="286.855" y2="31.8742" gradientUnits="userSpaceOnUse">
<stop stop-color="#9F27D6"/>
<stop offset="1" stop-color="#1F3292"/>
</linearGradient>
<linearGradient id="paint2_linear_146_367" x1="78.2803" y1="59.359" x2="284.848" y2="75.558" gradientUnits="userSpaceOnUse">
<stop stop-color="#9F27D6"/>
<stop offset="1" stop-color="#1F3292"/>
</linearGradient>
<clipPath id="clip0_146_367">
<rect width="250" height="65" fill="white"/>
</clipPath>
</defs>
</svg>
